<svg id="Calque_1" data-name="Calque 1" xmlns="http://www.w3.org/2000/svg" viewBox="0 0 399.22 37.36"><defs><style>.cls-1{fill:#ce0033;}</style></defs><title>SIMPLON_LOGOTYPE_SLOGAN_1_ROUGE_NOIR_RVB</title><rect y="0.86" width="4.74" height="35.92"/><polygon points="34.98 0.86 34.98 29.1 14.88 0.91 14.84 0.86 10.21 0.86 10.21 36.78 14.95 36.78 14.95 9.26 34.53 36.73 34.57 36.78 39.72 36.78 39.72 0.86 34.98 0.86"/><path d="M85.3,28.71C82.07,31.56,78.68,33,75.24,33a13.41,13.41,0,0,1-9.76-4.1,13.73,13.73,0,0,1-4.12-10.1A13.7,13.7,0,0,1,65.48,8.75a13.39,13.39,0,0,1,9.76-4.12c3.44,0,6.83,1.45,10.06,4.31l.08.07,3.31-2.94-.1-.1A19.46,19.46,0,0,0,75.24.44,18,18,0,0,0,62,5.88a17.82,17.82,0,0,0-5.4,12.93,17.79,17.79,0,0,0,5.4,13,18.11,18.11,0,0,0,13.24,5.4,19.49,19.49,0,0,0,13.35-5.51l.1-.09-3.31-2.95Z"/><path d="M138.54.86h-7.66V36.79h7.66c6,0,10.62-1.7,13.87-4.95a17.91,17.91,0,0,0,5.44-13,17.76,17.76,0,0,0-5.34-12.88c-3.32-3.33-8-5-14-5.07m-2.93,4.22h2.9c4.38,0,7.86,1.2,10.35,3.58A14,14,0,0,1,153,18.81,13.84,13.84,0,0,1,148.86,29c-2.49,2.41-6,3.63-10.35,3.63h-2.9Z"/><polygon points="161.41 36.79 181.07 36.79 181.07 32.64 166.14 32.64 166.14 20.89 181.07 20.89 181.07 16.75 166.14 16.75 166.14 5 181.07 5 181.07 0.86 161.41 0.86 161.41 36.79"/><polygon points="225.64 28.13 218.57 9.87 218.54 9.79 215.37 9.79 208.31 28.13 200.99 0.95 200.97 0.86 196.15 0.86 205.79 36.78 209.88 36.78 216.96 18.22 224.02 36.78 228.12 36.78 237.71 1.02 237.75 0.86 232.96 0.86 225.64 28.13"/><polygon points="240.75 36.79 260.41 36.79 260.41 32.64 245.49 32.64 245.49 20.89 260.41 20.89 260.41 16.75 245.49 16.75 245.49 5 260.41 5 260.41 0.86 240.75 0.86 240.75 36.79"/><polygon points="276.32 5 284.85 5 284.85 36.78 289.56 36.78 289.56 5 298.07 5 298.07 0.86 276.32 0.86 276.32 5"/><path d="M319.18,21.53A11.78,11.78,0,0,0,322.81,13a11.57,11.57,0,0,0-3.53-8.44A12.71,12.71,0,0,0,311.73.86H301.39V36.79h4.74V25.11h4l7.51,11.68h5.48l-8-12.42a10.45,10.45,0,0,0,4.11-2.84M306.13,5h4.28a7.41,7.41,0,0,1,5.37,2.27A7.67,7.67,0,0,1,318.07,13a7.74,7.74,0,0,1-2.29,5.7,7.42,7.42,0,0,1-5.37,2.28h-4.28Z"/><path d="M346.24,25A7.84,7.84,0,0,1,344,30.64a7.43,7.43,0,0,1-10.75,0A7.81,7.81,0,0,1,330.92,25V.86h-4.74V25a11.77,11.77,0,0,0,3.58,8.53,12.06,12.06,0,0,0,8.84,3.59,11.86,11.86,0,0,0,8.74-3.55A12.45,12.45,0,0,0,351,26.22V.86h-4.73Z"/><path d="M366.08,14a12.75,12.75,0,0,1-3.49-2.25,4.23,4.23,0,0,1-1.2-3,4,4,0,0,1,1.16-3,3.59,3.59,0,0,1,5.34,0,7.6,7.6,0,0,1,1.31,2.55l.05.12,4.13-1.61.11,0,0-.11A8.87,8.87,0,0,0,371.37,3,8.47,8.47,0,0,0,365.2.44a8.26,8.26,0,0,0-6.1,2.48,8,8,0,0,0-2.45,5.75A7.84,7.84,0,0,0,359,14.39,15.47,15.47,0,0,0,365.23,18,14.77,14.77,0,0,1,370,21.13a6.72,6.72,0,0,1,2,4.94,6.79,6.79,0,0,1-2,5,6.47,6.47,0,0,1-4.71,2,6.37,6.37,0,0,1-4.62-1.95c-1.18-1.17-1.91-3.05-2.17-5.6v-.16L353.93,27l-.09,0v.1a11.48,11.48,0,0,0,3.21,6.69,11.54,11.54,0,0,0,16.23.09,10.87,10.87,0,0,0,0-15.64A17.8,17.8,0,0,0,366.08,14"/><polygon points="377.48 0.86 377.48 5 386 5 386 36.79 390.72 36.79 390.72 5 399.22 5 399.22 0.86 377.48 0.86"/><path class="cls-1" d="M122.13,5.52a18,18,0,0,1,5.51,13.15,18,18,0,0,1-5.51,13.18,19.17,19.17,0,0,1-26.9,0,18,18,0,0,1-5.5-13.18,18,18,0,0,1,5.5-13.15,19.15,19.15,0,0,1,26.9,0M108.67,4A13.75,13.75,0,0,0,98.59,8.27a14.15,14.15,0,0,0-4.25,10.4A14.18,14.18,0,0,0,98.59,29.1a14.11,14.11,0,0,0,20.19,0A14.22,14.22,0,0,0,123,18.67a14.18,14.18,0,0,0-4.25-10.4A13.78,13.78,0,0,0,108.67,4"/><path class="cls-1" d="M111.2,11.42h-5.56V17h5.56Zm0,9.93h-5.56v5.56h5.56Z"/></svg>